<?xml version="1.0" encoding="utf-8"?>
<!-- Generator: Adobe Illustrator 17.0.0, SVG Export Plug-In . SVG Version: 6.00 Build 0)  -->
<!DOCTYPE svg PUBLIC "-//W3C//DTD SVG 1.1//EN" "http://www.w3.org/Graphics/SVG/1.1/DTD/svg11.dtd">
<svg version="1.1" id="Layer_1" xmlns="http://www.w3.org/2000/svg" xmlns:xlink="http://www.w3.org/1999/xlink" x="0px" y="0px"
	 width="87.947px" height="46.602px" viewBox="0 0 87.947 46.602" enable-background="new 0 0 87.947 46.602" xml:space="preserve">
<g>
	<path fill="#FFFFFF" d="M22.4,1.252c-0.4,1.633-0.734,3.075-1,4.325c-0.268,1.25-0.467,2.309-0.6,3.175
		c-0.267,1.8-0.467,3.767-0.6,5.9c-0.134,2.133-0.2,4.483-0.2,7.05c0,0.734,0.025,1.634,0.075,2.7
		c0.05,1.067,0.108,2.317,0.175,3.75c0.2,2.867,0.3,5,0.3,6.4c0,2.8-0.817,5.433-2.45,7.9c-1.867,2.767-4.117,4.15-6.75,4.15
		c-1.333,0-3.467-0.533-6.4-1.6C1.65,43.769,0,42.619,0,41.552c0-0.6,0.434-0.9,1.3-0.9c0.3,0,1.417,0.766,3.35,2.3
		c1.933,1.533,3.55,2.3,4.85,2.3c5.833,0,8.75-4.85,8.75-14.55c0-0.866-0.025-1.958-0.075-3.275
		c-0.05-1.316-0.142-2.875-0.275-4.675c-1.134,3.333-1.984,5.5-2.55,6.5c-1.467,2.6-3.184,3.9-5.15,3.9c-2.5,0-4.317-1.1-5.45-3.3
		c-0.9-1.732-1.35-3.95-1.35-6.65c0-0.966,0.05-2.183,0.15-3.65c0.1-1.466,0.233-3.2,0.4-5.2c0.4-3.933,0.6-6.883,0.6-8.85
		c0-0.2-0.017-0.517-0.05-0.95c-0.033-0.433-0.05-0.75-0.05-0.95c0-1.033,0.3-1.55,0.9-1.55c0.267,0,1.083,0.567,2.45,1.7l-0.4,1.75
		C7.333,5.736,7.283,5.944,7.25,6.127c-0.033,0.184-0.067,0.358-0.1,0.525c-0.467,2.934-0.825,5.758-1.075,8.475
		S5.7,20.502,5.7,23.102c0,5.9,1.35,8.85,4.05,8.85c1.833,0,3.583-1.65,5.25-4.95c1.467-2.9,2.433-6.15,2.9-9.75
		c0.266-2.3,0.525-4.8,0.775-7.5c0.25-2.7,0.458-5.65,0.625-8.85c0.033-0.633,0.5-0.933,1.4-0.9C21.8,0.036,22.367,0.452,22.4,1.252
		z"/>
	<path fill="#FFFFFF" d="M37.15,18.702c0,1.467-0.434,3.2-1.3,5.2c-0.767,1.767-1.783,2.65-3.05,2.65c-0.167,0-0.75-0.2-1.75-0.6
		c-0.067,0.367-0.15,0.784-0.25,1.25c-0.1,0.467-0.217,0.984-0.35,1.55c-0.267,0.767-0.508,1.417-0.725,1.95
		c-0.217,0.534-0.408,0.934-0.575,1.2c-0.667,1.067-1.484,1.6-2.45,1.6c-2.434,0-3.65-2.483-3.65-7.45c0-3.167,0.267-5.3,0.8-6.4
		c0,0.1,0,0.133,0,0.1c0-0.066-0.017-0.217-0.05-0.45c-0.034-0.233-0.05-0.417-0.05-0.55c0-0.167,0-0.283,0-0.35
		c0.033-0.3,0.133-0.533,0.3-0.7c0.066-0.167,0.133-0.417,0.2-0.75c0.066-0.333,0.166-0.783,0.3-1.35c0.233-1.133,0.8-1.7,1.7-1.7
		c0.866,0,1.766,0.367,2.7,1.1c0.966,0.733,1.583,1.483,1.85,2.25c0.267,0.8,0.4,3.217,0.4,7.25c0.466,0.367,0.883,0.55,1.25,0.55
		c1.167,0,2.033-0.65,2.6-1.95c0.267-0.5,0.616-1.816,1.05-3.95c0.133-0.6,0.333-0.9,0.6-0.9C37,18.252,37.15,18.402,37.15,18.702z
		 M29.6,26.102c0-0.366-0.033-0.816-0.1-1.35c-0.067-0.533-0.167-1.15-0.3-1.85c-0.133-0.7-0.233-1.308-0.3-1.825
		c-0.067-0.516-0.1-0.958-0.1-1.325c0-0.233,0.025-0.6,0.075-1.1c0.05-0.5,0.075-0.867,0.075-1.1c0-1.167-0.534-1.75-1.6-1.75
		c-0.7,0-1.317,1.567-1.85,4.7c-0.5,2.7-0.75,4.75-0.75,6.15c0,3.6,0.732,5.4,2.2,5.4c0.367,0,0.85-0.667,1.45-2
		C29.2,28.319,29.6,27.002,29.6,26.102z"/>
	<path fill="#FFFFFF" d="M45.1,32.502c-0.734,0-1.367-0.55-1.9-1.65c-0.133-0.2-0.434-1.066-0.9-2.6
		c-0.233,0.567-0.483,1.158-0.75,1.775c-0.267,0.617-0.534,1.258-0.8,1.925c-0.6,1.034-1.384,1.55-2.35,1.55
		c-0.867,0-1.55-0.5-2.05-1.5c-0.4-0.833-0.6-1.733-0.6-2.7c0-0.7,0.016-1.558,0.05-2.575c0.033-1.016,0.083-2.208,0.15-3.575
		c0.133-3.4,0.316-5.283,0.55-5.65c0.167-0.267,0.45-0.4,0.85-0.4c0.333,0,0.633,0.143,0.9,0.425c0.266,0.284,0.4,0.592,0.4,0.925
		c0,0.333-0.067,0.717-0.2,1.15c-0.067,0.334-0.125,0.592-0.175,0.775c-0.05,0.184-0.092,0.309-0.125,0.375
		c-0.233,1.3-0.409,2.725-0.525,4.275c-0.117,1.55-0.175,3.225-0.175,5.025c0,1.467,0.316,2.2,0.95,2.2c0.5,0,0.966-0.417,1.4-1.25
		c0.167-0.333,0.316-0.658,0.45-0.975c0.133-0.316,0.266-0.642,0.4-0.975c0.733-1.733,1.283-3.9,1.65-6.5
		c0.033-0.066,0.075-0.283,0.125-0.65c0.05-0.367,0.125-0.867,0.225-1.5c0.066-0.466,0.125-0.875,0.175-1.225
		c0.05-0.35,0.075-0.658,0.075-0.925c0-0.767,0-1.3,0-1.6c0-0.333-0.017-0.433-0.05-0.3c0.1-0.866,0.433-1.266,1-1.2
		c0.966,0,1.45,0.267,1.45,0.8c0,0.167-0.092,0.442-0.275,0.825c-0.184,0.383-0.292,0.725-0.325,1.025
		c0,0.134-0.042,0.509-0.125,1.125c-0.083,0.617-0.208,1.492-0.375,2.625c-0.133,0.934-0.233,1.784-0.3,2.55
		c-0.067,0.768-0.1,1.45-0.1,2.05c0,3.167,0.483,4.75,1.45,4.75c0.9,0,1.866-1.767,2.9-5.3c0.4-1.433,1-3.633,1.8-6.6
		c0.133-0.5,0.333-0.75,0.6-0.75c0.267,0,0.4,0.2,0.4,0.6c0,1.167-0.567,3.5-1.7,7C47.85,30.286,46.466,32.502,45.1,32.502z"/>
	<path fill="#FFFFFF" d="M58.149,20.302c0,2.434-0.317,5.067-0.95,7.9c-0.867,4.067-2.034,6.1-3.5,6.1c-0.833,0-1.567-0.75-2.2-2.25
		h-0.45c-0.167,0.5-0.4,0.75-0.7,0.75c-0.3,0-0.567-0.191-0.8-0.575c-0.234-0.383-0.35-0.741-0.35-1.075c0-0.133,0.033-0.3,0.1-0.5
		c-0.034-2.533,0.033-5.2,0.2-8c0.167-2.8,0.433-5.767,0.8-8.9c0.167-1.2,0.366-2.7,0.6-4.5c0.232-1.8,0.5-3.917,0.8-6.35
		c0.133-1.1,0.15-1.816,0.05-2.15c0.2-0.367,0.633-0.517,1.3-0.45c0.8,0,1.2,0.417,1.2,1.25c0,0.333-0.117,0.917-0.35,1.75
		c-0.134,0.5-0.259,1-0.375,1.5c-0.117,0.5-0.209,0.983-0.275,1.45c-0.733,4.167-1.283,7.642-1.65,10.425
		c-0.367,2.784-0.55,4.925-0.55,6.425c0.333-0.8,0.667-1.866,1-3.2c0.7-2.7,1.7-4.05,3-4.05
		C57.115,15.852,58.149,17.336,58.149,20.302z M56.549,21.252c0-2.767-0.384-4.15-1.15-4.15c-0.934,0-1.9,1.934-2.9,5.8
		c-0.9,3.367-1.35,5.8-1.35,7.3c0.3,0.267,0.7,0.817,1.2,1.65c0.3,0.5,0.667,0.75,1.1,0.75c0.8,0,1.466-1.016,2-3.05
		C56.182,27.02,56.549,24.252,56.549,21.252z"/>
	<path fill="#FFFFFF" d="M72.999,18.852c0,0.234-0.25,1.35-0.75,3.35c-1.268,5-2.518,8.35-3.75,10.05
		c-0.768,0.966-1.65,1.45-2.65,1.45c-1.399,0-2.533-0.783-3.399-2.35c-0.667-1.333-1-2.75-1-4.25c0-1.033,0.05-2.116,0.15-3.25
		c0.1-1.133,0.266-2.333,0.499-3.6c0.633-3.633,1.551-5.45,2.75-5.45c0.7,0,1.351,0.25,1.95,0.75c0.601,0.5,0.9,1.1,0.9,1.8
		c0,2.467-0.718,5.234-2.15,8.3c-0.567,1.267-1.267,2.55-2.1,3.85c0,0.567,0.282,1.217,0.85,1.95c0.533,0.7,1.101,1.05,1.7,1.05
		c1.6,0,3.4-3.8,5.4-11.4c0.5-1.9,0.816-2.85,0.949-2.85C72.782,18.252,72.999,18.452,72.999,18.852z M66.348,17.902
		c0-1.133-0.233-1.7-0.699-1.7c-0.268,0-0.468,0.217-0.601,0.65c-1.233,3.7-1.85,7.3-1.85,10.8c0.767-0.466,1.5-1.966,2.2-4.5
		C66.032,20.952,66.348,19.202,66.348,17.902z"/>
	<path fill="#FFFFFF" d="M85.347,18.702c0,1.467-0.434,3.2-1.3,5.2c-0.767,1.767-1.783,2.65-3.05,2.65c-0.167,0-0.75-0.2-1.75-0.6
		c-0.067,0.367-0.15,0.784-0.25,1.25c-0.1,0.467-0.217,0.984-0.35,1.55c-0.268,0.767-0.509,1.417-0.726,1.95
		c-0.217,0.534-0.408,0.934-0.575,1.2c-0.667,1.067-1.483,1.6-2.449,1.6c-2.434,0-3.65-2.483-3.65-7.45c0-3.167,0.267-5.3,0.8-6.4
		c0,0.1,0,0.133,0,0.1c0-0.066-0.017-0.217-0.05-0.45c-0.033-0.233-0.05-0.417-0.05-0.55c0-0.167,0-0.283,0-0.35
		c0.032-0.3,0.133-0.533,0.3-0.7c0.066-0.167,0.133-0.417,0.2-0.75c0.066-0.333,0.166-0.783,0.3-1.35c0.232-1.133,0.8-1.7,1.7-1.7
		c0.866,0,1.767,0.367,2.7,1.1c0.966,0.733,1.582,1.483,1.85,2.25c0.267,0.8,0.4,3.217,0.4,7.25c0.466,0.367,0.883,0.55,1.25,0.55
		c1.166,0,2.032-0.65,2.6-1.95c0.267-0.5,0.616-1.816,1.05-3.95c0.133-0.6,0.333-0.9,0.601-0.9
		C85.198,18.252,85.347,18.402,85.347,18.702z M77.797,26.102c0-0.366-0.033-0.816-0.1-1.35c-0.067-0.533-0.167-1.15-0.3-1.85
		c-0.134-0.7-0.234-1.308-0.301-1.825c-0.066-0.516-0.1-0.958-0.1-1.325c0-0.233,0.025-0.6,0.075-1.1s0.075-0.867,0.075-1.1
		c0-1.167-0.534-1.75-1.601-1.75c-0.7,0-1.317,1.567-1.85,4.7c-0.5,2.7-0.75,4.75-0.75,6.15c0,3.6,0.732,5.4,2.2,5.4
		c0.366,0,0.85-0.667,1.449-2C77.398,28.319,77.797,27.002,77.797,26.102z"/>
	<path fill="#FFFFFF" d="M87.947,31.602c0,1.268-0.5,1.9-1.5,1.9s-1.5-0.467-1.5-1.4c0-0.4,0.158-0.791,0.476-1.175
		c0.316-0.383,0.657-0.575,1.024-0.575C87.447,30.352,87.947,30.77,87.947,31.602z"/>
</g>
</svg>
