<?xml version="1.0" encoding="utf-8"?>
<!-- Generator: Adobe Illustrator 19.2.1, SVG Export Plug-In . SVG Version: 6.00 Build 0)  -->
<!DOCTYPE svg PUBLIC "-//W3C//DTD SVG 1.1//EN" "http://www.w3.org/Graphics/SVG/1.1/DTD/svg11.dtd">
<svg version="1.1" id="Layer_1" xmlns="http://www.w3.org/2000/svg" xmlns:xlink="http://www.w3.org/1999/xlink" x="0px" y="0px"
	 width="87.9px" height="46.6px" viewBox="0 0 87.9 46.6" style="enable-background:new 0 0 87.9 46.6;" xml:space="preserve">
<g>
	<path d="M22.4,1.3c-0.4,1.6-0.7,3.1-1,4.3c-0.3,1.2-0.5,2.3-0.6,3.2c-0.3,1.8-0.5,3.8-0.6,5.9c-0.1,2.1-0.2,4.5-0.2,7
		c0,0.7,0,1.6,0.1,2.7c0,1.1,0.1,2.3,0.2,3.8c0.2,2.9,0.3,5,0.3,6.4c0,2.8-0.8,5.4-2.5,7.9c-1.9,2.8-4.1,4.2-6.8,4.2
		c-1.3,0-3.5-0.5-6.4-1.6C1.6,43.8,0,42.6,0,41.6c0-0.6,0.4-0.9,1.3-0.9c0.3,0,1.4,0.8,3.3,2.3c1.9,1.5,3.6,2.3,4.9,2.3
		c5.8,0,8.8-4.8,8.8-14.5c0-0.9,0-2-0.1-3.3c0-1.3-0.1-2.9-0.3-4.7c-1.1,3.3-2,5.5-2.6,6.5c-1.5,2.6-3.2,3.9-5.2,3.9
		c-2.5,0-4.3-1.1-5.4-3.3c-0.9-1.7-1.3-4-1.3-6.6c0-1,0-2.2,0.2-3.6c0.1-1.5,0.2-3.2,0.4-5.2c0.4-3.9,0.6-6.9,0.6-8.9
		c0-0.2,0-0.5-0.1-0.9c0-0.4-0.1-0.8-0.1-1c0-1,0.3-1.5,0.9-1.5c0.3,0,1.1,0.6,2.5,1.7L7.4,5.5C7.3,5.7,7.3,5.9,7.2,6.1
		c0,0.2-0.1,0.4-0.1,0.5c-0.5,2.9-0.8,5.8-1.1,8.5s-0.4,5.4-0.4,8C5.7,29,7,32,9.8,32c1.8,0,3.6-1.6,5.2-5c1.5-2.9,2.4-6.1,2.9-9.8
		c0.3-2.3,0.5-4.8,0.8-7.5s0.5-5.7,0.6-8.9c0-0.6,0.5-0.9,1.4-0.9C21.8,0,22.4,0.5,22.4,1.3z"/>
	<path d="M37.2,18.7c0,1.5-0.4,3.2-1.3,5.2c-0.8,1.8-1.8,2.6-3,2.6c-0.2,0-0.8-0.2-1.8-0.6c-0.1,0.4-0.1,0.8-0.2,1.2
		c-0.1,0.5-0.2,1-0.4,1.5c-0.3,0.8-0.5,1.4-0.7,2c-0.2,0.5-0.4,0.9-0.6,1.2c-0.7,1.1-1.5,1.6-2.5,1.6c-2.4,0-3.6-2.5-3.6-7.5
		c0-3.2,0.3-5.3,0.8-6.4c0,0.1,0,0.1,0,0.1c0-0.1,0-0.2,0-0.5c0-0.2,0-0.4,0-0.5c0-0.2,0-0.3,0-0.4c0-0.3,0.1-0.5,0.3-0.7
		c0.1-0.2,0.1-0.4,0.2-0.8c0.1-0.3,0.2-0.8,0.3-1.4c0.2-1.1,0.8-1.7,1.7-1.7c0.9,0,1.8,0.4,2.7,1.1c1,0.7,1.6,1.5,1.9,2.3
		c0.3,0.8,0.4,3.2,0.4,7.2c0.5,0.4,0.9,0.5,1.3,0.5c1.2,0,2-0.6,2.6-2c0.3-0.5,0.6-1.8,1-4c0.1-0.6,0.3-0.9,0.6-0.9
		C37,18.3,37.2,18.4,37.2,18.7z M29.6,26.1c0-0.4,0-0.8-0.1-1.4c-0.1-0.5-0.2-1.1-0.3-1.9s-0.2-1.3-0.3-1.8c-0.1-0.5-0.1-1-0.1-1.3
		c0-0.2,0-0.6,0.1-1.1c0-0.5,0.1-0.9,0.1-1.1c0-1.2-0.5-1.8-1.6-1.8c-0.7,0-1.3,1.6-1.9,4.7c-0.5,2.7-0.8,4.8-0.8,6.1
		c0,3.6,0.7,5.4,2.2,5.4c0.4,0,0.9-0.7,1.5-2C29.2,28.3,29.6,27,29.6,26.1z"/>
	<path d="M45.1,32.5c-0.7,0-1.4-0.5-1.9-1.6c-0.1-0.2-0.4-1.1-0.9-2.6c-0.2,0.6-0.5,1.2-0.8,1.8c-0.3,0.6-0.5,1.3-0.8,1.9
		c-0.6,1-1.4,1.6-2.3,1.6c-0.9,0-1.5-0.5-2-1.5c-0.4-0.8-0.6-1.7-0.6-2.7c0-0.7,0-1.6,0-2.6c0-1,0.1-2.2,0.2-3.6
		c0.1-3.4,0.3-5.3,0.5-5.6c0.2-0.3,0.5-0.4,0.8-0.4c0.3,0,0.6,0.1,0.9,0.4c0.3,0.3,0.4,0.6,0.4,0.9s-0.1,0.7-0.2,1.1
		c-0.1,0.3-0.1,0.6-0.2,0.8c0,0.2-0.1,0.3-0.1,0.4c-0.2,1.3-0.4,2.7-0.5,4.3c-0.1,1.5-0.2,3.2-0.2,5c0,1.5,0.3,2.2,1,2.2
		c0.5,0,1-0.4,1.4-1.2c0.2-0.3,0.3-0.7,0.5-1c0.1-0.3,0.3-0.6,0.4-1c0.7-1.7,1.3-3.9,1.7-6.5c0-0.1,0.1-0.3,0.1-0.6
		c0-0.4,0.1-0.9,0.2-1.5c0.1-0.5,0.1-0.9,0.2-1.2s0.1-0.7,0.1-0.9c0-0.8,0-1.3,0-1.6c0-0.3,0-0.4,0-0.3c0.1-0.9,0.4-1.3,1-1.2
		c1,0,1.5,0.3,1.5,0.8c0,0.2-0.1,0.4-0.3,0.8c-0.2,0.4-0.3,0.7-0.3,1c0,0.1,0,0.5-0.1,1.1c-0.1,0.6-0.2,1.5-0.4,2.6
		c-0.1,0.9-0.2,1.8-0.3,2.5c-0.1,0.8-0.1,1.5-0.1,2c0,3.2,0.5,4.8,1.5,4.8c0.9,0,1.9-1.8,2.9-5.3c0.4-1.4,1-3.6,1.8-6.6
		c0.1-0.5,0.3-0.8,0.6-0.8s0.4,0.2,0.4,0.6c0,1.2-0.6,3.5-1.7,7C47.8,30.3,46.5,32.5,45.1,32.5z"/>
	<path d="M58.1,20.3c0,2.4-0.3,5.1-1,7.9c-0.9,4.1-2,6.1-3.5,6.1c-0.8,0-1.6-0.8-2.2-2.2H51c-0.2,0.5-0.4,0.8-0.7,0.8
		s-0.6-0.2-0.8-0.6c-0.2-0.4-0.3-0.7-0.3-1.1c0-0.1,0-0.3,0.1-0.5c0-2.5,0-5.2,0.2-8s0.4-5.8,0.8-8.9c0.2-1.2,0.4-2.7,0.6-4.5
		c0.2-1.8,0.5-3.9,0.8-6.3c0.1-1.1,0.2-1.8,0-2.2c0.2-0.4,0.6-0.5,1.3-0.4c0.8,0,1.2,0.4,1.2,1.2c0,0.3-0.1,0.9-0.3,1.8
		c-0.1,0.5-0.3,1-0.4,1.5c-0.1,0.5-0.2,1-0.3,1.4c-0.7,4.2-1.3,7.6-1.7,10.4c-0.4,2.8-0.5,4.9-0.5,6.4c0.3-0.8,0.7-1.9,1-3.2
		c0.7-2.7,1.7-4.1,3-4.1C57.1,15.9,58.1,17.3,58.1,20.3z M56.5,21.3c0-2.8-0.4-4.1-1.2-4.1c-0.9,0-1.9,1.9-2.9,5.8
		c-0.9,3.4-1.3,5.8-1.3,7.3c0.3,0.3,0.7,0.8,1.2,1.6c0.3,0.5,0.7,0.7,1.1,0.7c0.8,0,1.5-1,2-3C56.2,27,56.5,24.3,56.5,21.3z"/>
	<path d="M73,18.9c0,0.2-0.2,1.4-0.8,3.4c-1.3,5-2.5,8.4-3.8,10c-0.8,1-1.7,1.5-2.7,1.5c-1.4,0-2.5-0.8-3.4-2.4
		c-0.7-1.3-1-2.8-1-4.2c0-1,0-2.1,0.2-3.2c0.1-1.1,0.3-2.3,0.5-3.6c0.6-3.6,1.6-5.4,2.7-5.4c0.7,0,1.4,0.2,1.9,0.8
		c0.6,0.5,0.9,1.1,0.9,1.8c0,2.5-0.7,5.2-2.2,8.3c-0.6,1.3-1.3,2.5-2.1,3.9c0,0.6,0.3,1.2,0.8,2c0.5,0.7,1.1,1.1,1.7,1.1
		c1.6,0,3.4-3.8,5.4-11.4c0.5-1.9,0.8-2.9,0.9-2.9C72.8,18.3,73,18.5,73,18.9z M66.3,17.9c0-1.1-0.2-1.7-0.7-1.7
		c-0.3,0-0.5,0.2-0.6,0.6c-1.2,3.7-1.8,7.3-1.8,10.8c0.8-0.5,1.5-2,2.2-4.5C66,21,66.3,19.2,66.3,17.9z"/>
	<path d="M85.3,18.7c0,1.5-0.4,3.2-1.3,5.2c-0.8,1.8-1.8,2.6-3.1,2.6c-0.2,0-0.8-0.2-1.8-0.6c-0.1,0.4-0.2,0.8-0.2,1.2
		c-0.1,0.5-0.2,1-0.3,1.5c-0.3,0.8-0.5,1.4-0.7,2c-0.2,0.5-0.4,0.9-0.6,1.2c-0.7,1.1-1.5,1.6-2.4,1.6c-2.4,0-3.7-2.5-3.7-7.5
		c0-3.2,0.3-5.3,0.8-6.4c0,0.1,0,0.1,0,0.1c0-0.1,0-0.2-0.1-0.5c0-0.2-0.1-0.4-0.1-0.5c0-0.2,0-0.3,0-0.4c0-0.3,0.1-0.5,0.3-0.7
		c0.1-0.2,0.1-0.4,0.2-0.8c0.1-0.3,0.2-0.8,0.3-1.4c0.2-1.1,0.8-1.7,1.7-1.7c0.9,0,1.8,0.4,2.7,1.1c1,0.7,1.6,1.5,1.8,2.3
		c0.3,0.8,0.4,3.2,0.4,7.2c0.5,0.4,0.9,0.5,1.2,0.5c1.2,0,2-0.6,2.6-2c0.3-0.5,0.6-1.8,1.1-4c0.1-0.6,0.3-0.9,0.6-0.9
		C85.2,18.3,85.3,18.4,85.3,18.7z M77.8,26.1c0-0.4,0-0.8-0.1-1.4c-0.1-0.5-0.2-1.1-0.3-1.9c-0.1-0.7-0.2-1.3-0.3-1.8
		c-0.1-0.5-0.1-1-0.1-1.3c0-0.2,0-0.6,0.1-1.1s0.1-0.9,0.1-1.1c0-1.2-0.5-1.8-1.6-1.8c-0.7,0-1.3,1.6-1.8,4.7
		c-0.5,2.7-0.8,4.8-0.8,6.1c0,3.6,0.7,5.4,2.2,5.4c0.4,0,0.8-0.7,1.4-2C77.4,28.3,77.8,27,77.8,26.1z"/>
	<path d="M87.9,31.6c0,1.3-0.5,1.9-1.5,1.9s-1.5-0.5-1.5-1.4c0-0.4,0.2-0.8,0.5-1.2c0.3-0.4,0.7-0.6,1-0.6
		C87.4,30.4,87.9,30.8,87.9,31.6z"/>
</g>
</svg>
